<?xml version="1.0" standalone="no"?><!DOCTYPE svg PUBLIC "-//W3C//DTD SVG 1.1//EN" "http://www.w3.org/Graphics/SVG/1.1/DTD/svg11.dtd"><svg t="1582893416303" class="icon" viewBox="0 0 1024 1024" version="1.1" xmlns="http://www.w3.org/2000/svg" p-id="2823" xmlns:xlink="http://www.w3.org/1999/xlink" width="200" height="200"><defs><style type="text/css"></style></defs><path d="M503.466667 533.333333a737.706667 737.706667 0 0 1-64.426667-129.706666C398.933333 302.933333 683.946667 212.053333 568.32 37.546667 618.24 158.293333 388.266667 232.96 366.933333 333.226667c-19.2 92.586667 136.533333 200.106667 136.533334 200.106666z" fill="#F44336" p-id="2824"></path><path d="M509.013333 352.426667c-4.693333 59.733333 52.906667 91.733333 54.613334 135.253333 1.28 35.413333-34.133333 65.28-34.133334 65.28s64.853333-12.8 84.906667-66.986667-43.52-101.12-36.693333-149.333333S720.64 204.8 720.64 204.8s-201.386667 13.226667-211.626667 147.626667z" fill="#F44336" p-id="2825"></path><path d="M704 537.173333c41.813333-9.386667 76.8 17.066667 76.8 47.786667 0 68.693333-95.573333 133.973333-95.573333 133.973333s147.626667-17.493333 147.626666-130.56c0-75.093333-72.533333-93.866667-128.853333-51.2zM633.6 592.64s46.08-32.853333 58.453333-45.226667c-113.066667 23.893333-371.2 27.306667-371.2 6.4s83.2-38.826667 83.2-38.826666-184.32-2.56-184.32 51.626666 241.493333 61.013333 413.866667 26.026667zM605.44 644.266667c-107.093333 35.413333-304.213333 24.32-245.76-23.466667-28.586667 0-70.826667 22.613333-70.826667 44.8 0 43.946667 213.333333 78.08 371.2 13.653333z" fill="#1565C0" p-id="2826"></path><path d="M386.133333 719.36c-38.826667 0-64 25.173333-64 43.093333 0 56.746667 231.68 62.293333 323.413334 4.693334l-58.453334-38.826667c-68.693333 30.72-240.64 34.56-200.96-8.96z" fill="#1565C0" p-id="2827"></path><path d="M803.413333 811.946667c0-22.186667-25.173333-32.853333-34.133333-37.546667 52.906667 127.573333-529.493333 117.76-529.493333 42.24 0-17.066667 43.093333-33.706667 82.346666-26.026667l-33.706666-20.053333c-78.933333-12.373333-132.693333 22.186667-132.693334 50.346667 0.426667 130.56 647.68 124.16 647.68-8.96z" fill="#1565C0" p-id="2828"></path><path d="M867.84 858.453333c-98.56 97.28-347.733333 132.693333-598.613333 72.533334 250.88 107.093333 597.333333 46.933333 598.613333-72.533334z" fill="#1565C0" p-id="2829"></path></svg>